<svg xmlns="http://www.w3.org/2000/svg" viewBox="0 0 1684 850" width="80" height="40"><title>logo jasam krzywa-pdf</title><defs><clipPath id="cp1"><path d="m0 0h1684v850h-1684z"></path></clipPath></defs><style> .s0 { fill: #0c4da5 } .s1 { fill: #1c1f1f } .s2 { fill: #222525 } .s3 { fill: #1d2122 } .s4 { fill: #ffffff } .s5 { fill: #0e50a7 } .s6 { fill: #fcfcfc } .s7 { fill: #fcfcfe } .s8 { fill: #262928 } .s9 { fill: #202223 } </style><g id="LogoJasam" clip-path="url(#cp1)"><path id="Path 1" class="s0" d="m50.7 411.6h408.5v-400.6h-408.5z"></path><path id="Path 2" class="s1" d="m488.7 410.1l296.4 1.8 94.4-0.3c0-110.2-63.5-220.2-119.1-275.8-57.6-57.4-158.1-123.3-271.7-123.3z"></path><path id="Path 3" class="s2" d="m50.7 436.6c0 8.4-0.4 36.8 7.4 36.8h399.6v-36.8z"></path><path id="Path 4" class="s3" d="m63.9 525l393.8-0.1v-35.3l-400.4 0.1z"></path><path id="Path 5" class="s2" d="m457.7 541.1h-387.8c0.9 6.8 10.7 36.8 16.2 36.8h371.6z"></path><path id="Path 6" class="s4" d="m941.4 592.7v10.3c0 68 104.7 57.8 104.7 85.4 0 9.2-9.9 14.7-19.1 14.7h-8.9c-18.5 0-21.7-22.1-26.5-22.1h-53.1c0 42.9 35.2 69.2 78.1 69.2 47.5 0 85.6-21.2 85.6-67.7 0-79.8-103.3-55.5-103.3-88.4v-2.9c0-6 10.4-8.8 16.3-8.8 13.3 0 24.7 4.5 25 17.6h56.1c0-35.9-31-63.3-67.9-63.3h-17.7c-34.2 0-69.3 24.1-69.3 56z"></path><path id="Path 7" class="s5" d="m1188.9 675.1h37.1l-20.1-70.5z"></path><path id="Path 8" class="s3" d="m89.8 594.5l18.9 34.7 349 0.3v-35.4z"></path><path id="Path 9" class="s2" d="m119.2 646.3l26.3 35.9 307.8 0.3c3.4 0 4.4-1 4.4-4.4v-32.4z"></path><path id="Path 10" class="s5" d="m813.6 674.9h37.3l-19.7-70.7z"></path><path id="Path 11" fill-rule="evenodd" class="s0" d="m485.8 436.6h1147.3v402h-1147.3zm320 281.2h56l6.3 26.4 58.6 0.1-64.1-203-61.3-0.2-63.6 203.1 57.7 0.1c1.3-5.5 4.6-26.5 10.4-26.5zm-90-47.1v-129.6h-59v139.9c0 7.8-5.6 19.1-14.7 19.1h-4.5c-11.1 0-11.8-27-11.8-39.7v-4.4h-54.5v19.1c0 44.2 23.2 75.1 67.8 75.1h10.3c44.9 0 66.4-34.2 66.4-79.5zm770.3-50.3l-2.6 45.8 0.6 78.1h56.1v-70.7l-1.9-131h-70.4c-6 0-16.5 52.5-19 60.5-3.3 10.9-14.7 53.1-14.9 63.2h-3l-32.5-125.2h-73.6v203.2h56l-2.5-122.2c2.8 5.1 14.8 52.1 17.3 61.8 2.2 8.9 11 60.4 19.1 60.4l39.3-0.1zm-544.7-17.4c0 68 104.7 57.8 104.7 85.4 0 9.2-9.8 14.7-19.1 14.7h-8.9c-18.5 0-21.7-22.1-26.5-22.1h-53.1c0 42.9 35.2 69.2 78.2 69.2 47.4 0 85.5-21.2 85.5-67.7 0-79.9-103.2-55.5-103.2-88.4v-2.9c0-6 10.4-8.9 16.2-8.9 13.4 0 24.8 4.6 25 17.7h56.1c0-35.9-31-63.3-67.9-63.3h-17.6c-34.3 0-69.4 24.1-69.4 55.9zm236.4 115l58.6-0.1 7.1 26.6 57.8-0.1c-0.9-10.4-27.1-88.9-32.3-103.3-5.6-15.8-12.1-34.4-17-50.7-2.4-8.3-12.8-49.2-18.6-49.2h-56l-63.6 203.2 57.3-0.1z"></path><path id="Path 12" class="s1" d="m161.3 698.7c3.4 5 32 35.3 36.9 35.3h258.1v-35.3z"></path><path id="Path 13" class="s6" d="m1486.1 620.4l-2.6 45.8 0.6 78.1h56.1v-70.7l-1.9-131h-70.4c-6 0-16.5 52.5-19 60.5-3.3 10.9-14.7 53.2-14.9 63.2h-3l-32.5-125.2h-73.6v203.2h56l-2.5-122.2c2.8 5.1 14.8 52.1 17.3 61.8 2.2 8.9 11 60.4 19.1 60.4l39.3-0.1z"></path><path id="Path 14" fill-rule="evenodd" class="s4" d="m737.7 744.3l63.6-203.2 61.3 0.2 64.1 203-58.6-0.1-6.3-26.4h-56c-5.8 0-9.1 21-10.4 26.5zm75.9-69.4l37.3 0.1-19.7-70.8zm357.5 69.4h-57.3l63.6-203.1h56c5.8 0 16.2 40.9 18.7 49.1 4.8 16.4 11.3 35 16.9 50.8 5.2 14.4 31.4 92.9 32.3 103.3l-57.8 0.1-7.1-26.6-58.6 0.1zm17.8-69.2l37.1 0.1-20.1-70.6z"></path><path id="Path 15" class="s7" d="m649.4 750.2c44.9 0 66.4-34.2 66.4-79.5v-129.6h-59v139.9c0 7.8-5.6 19.2-14.7 19.2h-4.5c-11.1 0-11.8-27.1-11.8-39.8v-4.4h-54.5v19.1c0 44.3 23.2 75.1 67.8 75.1z"></path><path id="Path 16" class="s8" d="m218.8 750.2c5.4 7 47.6 36.8 57.5 36.8h177c3.4 0 4.4-1 4.4-4.4v-32.4z"></path><path id="Path 17" class="s9" d="m308.8 803.2c16.4 14.3 106.1 35.4 141.6 35.4h5.9v-35.4z"></path></g></svg>